<svg version="1.1" id="Layer_1" xmlns="http://www.w3.org/2000/svg" xmlns:xlink="http://www.w3.org/1999/xlink" x="0px" y="0px"
	 width="100%" viewBox="0 0 1024 331" enable-background="new 0 0 1024 331" xml:space="preserve">
<path fill="#F8F9F9" opacity="1.000000" stroke="none" 
	d="
M720.000000,332.000000 
	C480.000092,332.000000 240.500168,332.000000 1.000193,332.000000 
	C1.000129,221.666794 1.000129,111.333580 1.000064,1.000282 
	C342.333099,1.000188 683.666199,1.000188 1024.999512,1.000094 
	C1024.999634,111.333046 1024.999634,221.666092 1024.999756,331.999573 
	C923.500000,332.000000 822.000000,332.000000 720.000000,332.000000 
M340.197174,151.932739 
	C340.197174,151.932739 340.245117,151.818573 340.216125,151.070892 
	C339.604950,149.528458 339.154541,147.897171 338.358459,146.456955 
	C327.007935,125.922752 310.396729,111.990540 287.427216,106.134811 
	C284.640442,105.424362 281.605286,105.163795 282.891418,100.283226 
	C282.818634,99.528130 282.745819,98.773026 282.855835,97.270515 
	C281.134735,88.099724 274.642212,83.546043 265.552551,85.134483 
	C257.467133,86.547424 253.181076,94.304947 254.968399,104.956863 
	C237.221115,108.574730 222.016098,116.920296 209.956604,130.648849 
	C197.927292,144.343079 191.840729,160.379807 190.347458,178.792633 
	C195.085632,178.792633 199.046967,178.792633 203.900223,178.974640 
	C206.931793,178.916565 209.963348,178.858505 213.914536,179.000992 
	C220.051254,179.012650 226.188065,179.051468 232.324677,179.031006 
	C252.884644,178.962463 273.444550,178.872742 294.877014,178.975983 
	C297.249817,178.913605 299.622620,178.851227 302.914612,178.990417 
	C310.277679,178.932404 317.640778,178.874374 325.660187,178.986526 
	C326.105225,178.931580 326.550293,178.876633 327.886444,179.022842 
	C330.925720,178.955322 333.965027,178.887802 337.864349,179.001038 
	C339.907288,178.935989 341.950226,178.870941 344.683228,178.992859 
	C345.354279,178.322601 346.025330,177.652344 346.858765,176.308212 
	C346.718048,175.876160 346.577332,175.444107 346.644775,174.404556 
	C346.391937,173.614243 346.139099,172.823914 345.991150,171.253372 
	C345.793213,170.503143 345.595245,169.752930 345.626678,168.255219 
	C344.709961,165.185928 343.793213,162.116623 342.911194,158.316650 
	C342.704651,157.883209 342.498138,157.449783 342.471069,156.387177 
	C341.706360,154.861649 340.941650,153.336105 340.197174,151.932739 
M160.780548,91.500038 
	C160.779068,85.169121 160.861023,78.836815 160.755325,72.507637 
	C160.618179,64.294289 154.401779,57.575726 146.684433,57.115635 
	C139.114563,56.664345 132.323410,62.317108 131.011490,70.327431 
	C130.637192,72.612801 130.559387,74.969330 130.573181,77.291870 
	C130.643494,89.117599 130.904938,100.943092 130.884613,112.768303 
	C130.832245,143.253174 130.644180,173.737793 130.558456,204.222641 
	C130.527023,215.398499 132.171921,226.200211 139.064926,235.459061 
	C149.812195,249.895004 164.204086,256.847992 182.255417,255.819717 
	C185.869537,255.613846 187.864731,256.253174 188.755264,260.494293 
	C191.581635,273.954681 202.410812,282.486206 215.811157,282.541718 
	C229.558548,282.598663 240.747711,274.072021 243.676712,260.680511 
	C244.526779,256.793945 246.281342,255.929886 249.777496,255.991928 
	C258.271454,256.142639 266.785034,256.338531 275.260956,255.917358 
	C280.248169,255.669525 282.393677,257.056671 283.730743,262.171356 
	C287.200409,275.443695 298.201080,282.768768 312.700439,282.484833 
	C324.322845,282.257233 335.172485,273.468506 338.063721,261.339508 
	C338.968231,257.545166 340.582764,256.217499 344.359772,255.978897 
	C352.730499,255.450073 358.398254,249.163513 358.535278,240.858749 
	C358.662872,233.128159 352.763947,226.857925 344.504486,226.126007 
	C341.691010,225.876694 338.845398,225.952011 336.014313,225.944473 
	C286.036713,225.811401 236.058563,225.784927 186.081802,225.506348 
	C170.456879,225.419266 160.840546,215.227997 160.821457,199.458954 
	C160.778305,163.806015 160.790665,128.153000 160.780548,91.500038 
M221.500000,187.115173 
	C210.345367,187.110931 199.190720,187.116989 188.036102,187.099197 
	C179.101807,187.084930 173.893402,191.896851 173.922638,200.176376 
	C173.949203,207.705353 179.244247,212.597626 187.704437,212.605591 
	C241.979752,212.656708 296.255127,212.666748 350.530426,212.626602 
	C352.469696,212.625168 354.562714,212.308990 356.318909,211.536606 
	C361.896667,209.083435 364.843475,202.878723 363.482117,197.085754 
	C362.077881,191.110413 357.185913,187.155640 350.862701,187.150162 
	C308.075134,187.113129 265.287567,187.120453 221.500000,187.115173 
M661.630920,195.500153 
	C661.621399,178.184937 661.614075,160.869705 661.601746,143.554489 
	C661.592773,131.028046 661.593323,131.154037 649.121399,131.501678 
	C645.677124,131.597687 644.946533,132.973465 645.009216,136.030441 
	C645.162720,143.519501 645.079224,151.013779 645.052368,158.505814 
	C645.047485,159.864716 644.858093,161.222961 644.713867,163.102203 
	C642.967285,161.904953 641.879517,161.166016 640.798523,160.417313 
	C629.329895,152.473709 614.720154,153.553772 604.561462,163.097900 
	C593.731934,173.272339 590.531921,192.420227 597.461487,205.582016 
	C605.386108,220.633911 619.345825,226.975967 634.461304,222.046494 
	C637.951355,220.908310 641.076660,218.651825 644.544739,216.817413 
	C644.943115,218.698303 645.269348,220.238617 645.663696,222.100418 
	C649.547180,222.100418 653.207092,221.881866 656.828430,222.161697 
	C660.473572,222.443375 661.873718,221.344193 661.710632,217.474655 
	C661.416443,210.494431 661.629272,203.492813 661.630920,195.500153 
M678.738586,197.718231 
	C692.770386,230.555756 739.710876,232.109009 759.627686,206.869339 
	C755.808044,203.394409 751.940125,199.875519 747.809875,196.118011 
	C746.259094,197.418854 744.378418,199.037048 742.455261,200.603012 
	C731.190735,209.775345 714.809326,210.381516 703.438477,202.061066 
	C691.926819,193.637619 688.378479,175.754227 695.667847,162.897476 
	C703.136414,149.724686 719.771301,144.136978 733.814758,150.585922 
	C739.144775,153.033508 743.915955,156.697906 749.252014,159.999649 
	C752.787659,156.688950 756.500427,153.212463 760.160889,149.784912 
	C742.770020,126.504684 703.369995,125.935654 685.182800,148.390457 
	C673.228149,163.150330 672.641724,179.690964 678.738586,197.718231 
M789.802185,157.233200 
	C772.760925,164.624786 765.126404,185.642761 772.932983,204.207169 
	C776.140015,211.833649 781.564453,217.821808 789.148987,221.100479 
	C800.245056,225.897049 810.842529,224.108612 820.619019,216.178436 
	C821.084656,218.556015 821.388000,220.104904 821.691406,221.653854 
	C827.040833,221.653854 832.076965,221.653854 837.261841,221.653854 
	C837.261841,200.049026 837.261841,178.826996 837.261841,157.312561 
	C831.902832,157.312561 826.845581,157.312561 821.618530,157.312561 
	C821.343628,159.234634 821.103027,160.916565 820.772766,163.225861 
	C811.404968,155.641251 801.599426,152.981750 789.802185,157.233200 
M527.091431,215.431564 
	C539.341187,225.395370 554.013306,226.467361 567.920044,218.414642 
	C579.205872,211.879562 585.700195,197.542297 583.437256,184.157837 
	C580.910950,169.216354 570.315979,158.523788 555.188843,155.649292 
	C541.117981,152.975540 525.890442,160.505341 519.195374,173.447693 
	C511.875549,187.597763 514.599670,202.922546 527.091431,215.431564 
M487.873596,219.400482 
	C501.777924,211.696533 508.217377,196.741760 504.531433,180.714706 
	C501.330658,166.797333 487.290344,155.613632 472.433563,155.147430 
	C457.810486,154.688568 445.188965,163.037918 439.267303,177.087540 
	C433.970245,189.655136 437.454834,205.021378 447.785828,214.652695 
	C458.308685,224.462860 473.595520,226.462799 487.873596,219.400482 
M383.420074,213.382538 
	C383.433716,223.480148 382.369263,221.928528 392.216370,222.094498 
	C393.547729,222.116943 394.897186,221.956482 396.208221,222.120636 
	C399.767792,222.566345 400.764069,221.031631 400.693756,217.573639 
	C400.490784,207.589706 400.782349,197.595154 400.542725,187.612854 
	C400.445251,183.553528 401.613312,181.972839 405.859070,182.158997 
	C412.776611,182.462296 419.717133,182.240860 426.862793,182.240860 
	C426.862793,176.666946 426.862793,171.767090 426.862793,166.470337 
	C424.965149,166.381287 423.347260,166.248489 421.728699,166.239594 
	C415.902496,166.207565 410.070496,166.349396 404.254181,166.104507 
	C403.029449,166.052933 400.901306,164.717880 400.830322,163.841293 
	C400.475769,159.464050 400.668182,155.042526 400.668182,150.061676 
	C409.866272,150.061676 418.268646,150.061676 426.725769,150.061676 
	C426.725769,144.431976 426.725769,139.404114 426.725769,133.990860 
	C413.840637,133.990860 401.374634,134.191849 388.921234,133.883835 
	C384.452240,133.773315 383.296661,135.152603 383.330963,139.500946 
	C383.522614,163.803833 383.423676,188.109024 383.420074,213.382538 
M912.066895,171.438019 
	C914.834412,171.226883 917.601929,171.015762 920.497681,170.794846 
	C920.497681,166.136749 920.497681,161.764908 920.497681,157.292496 
	C919.137695,157.183701 918.130371,156.921387 917.180359,157.057816 
	C912.440186,157.738525 910.757507,156.086853 911.235352,151.069275 
	C911.793762,145.206451 911.365845,139.249695 911.365845,133.341156 
	C905.324646,133.341156 900.295837,133.341156 894.823608,133.341156 
	C894.823608,141.367523 894.823608,148.951248 894.823608,156.737427 
	C891.820557,156.950241 889.257996,157.131836 886.735474,157.310593 
	C886.735474,162.072800 886.735474,166.428375 886.735474,170.836670 
	C887.827637,170.955795 888.504944,171.177399 889.128662,171.074387 
	C894.172058,170.241165 895.203308,172.668411 895.066711,177.260620 
	C894.760132,187.565002 894.981323,197.885071 894.986206,208.198746 
	C894.988281,212.630829 894.986511,217.062927 894.986511,221.690521 
	C900.758789,221.690521 905.793396,221.690521 911.257507,221.690521 
	C911.257507,219.882843 911.251953,218.422668 911.258484,216.962570 
	C911.325256,202.009857 911.393860,187.057159 912.066895,171.438019 
M866.549377,193.518860 
	C866.811218,189.040573 866.693848,184.500107 867.415955,180.097305 
	C868.801208,171.651825 871.774597,169.570023 880.208191,170.475998 
	C881.480591,167.119171 882.627136,163.641266 884.112061,160.314392 
	C885.386292,157.459671 884.101379,156.304535 881.625061,155.662262 
	C875.418030,154.052353 870.615173,156.540375 866.437744,160.882172 
	C866.066895,161.267593 865.487610,161.452423 864.833557,161.829208 
	C864.432007,160.041595 864.116333,158.636276 863.847961,157.441467 
	C859.178101,157.441467 854.793884,157.441467 850.555664,157.441467 
	C850.555664,179.121536 850.555664,200.341980 850.555664,221.705475 
	C856.025146,221.705475 861.081299,221.705475 866.599365,221.705475 
	C866.599365,212.420242 866.599365,203.466766 866.549377,193.518860 
M455.500000,111.066170 
	C463.804169,111.065903 472.110016,111.149353 480.410706,110.979439 
	C481.727905,110.952492 483.021759,109.784599 484.326385,109.144196 
	C483.086212,108.464272 481.849976,107.200600 480.605194,107.192108 
	C462.336945,107.067520 444.067322,107.071785 425.798950,107.192986 
	C424.475250,107.201767 423.159058,108.350349 421.839386,108.968994 
	C423.259521,109.666855 424.668610,110.941643 426.101624,110.969177 
	C435.564880,111.151031 445.033264,111.064735 455.500000,111.066170 
M514.500000,260.112579 
	C503.193787,260.112579 491.887604,260.112579 480.581390,260.112579 
	C480.457550,260.852875 480.333740,261.593201 480.209900,262.333496 
	C481.625244,262.861084 483.038208,263.840302 484.456299,263.847809 
	C502.744995,263.944366 521.034729,263.944214 539.322998,263.804932 
	C540.588623,263.795288 541.844360,262.489105 543.104736,261.785828 
	C541.883911,261.225861 540.671448,260.203278 539.440918,260.181061 
	C531.462769,260.036896 523.480774,260.110626 514.500000,260.112579 
M503.408691,241.469864 
	C504.233551,238.099335 501.766449,238.494080 499.864594,238.490372 
	C481.736145,238.454956 463.607300,238.425797 445.479645,238.547531 
	C444.213074,238.556046 442.954651,239.780029 441.692413,240.438766 
	C442.907990,240.992294 444.122314,242.024628 445.339294,242.027740 
	C464.460785,242.076843 483.582611,241.993393 503.408691,241.469864 
M446.500000,263.879669 
	C454.137604,263.882111 461.776306,263.947937 469.411530,263.813873 
	C470.472473,263.795288 471.516144,262.791168 472.567810,262.243256 
	C471.491638,261.554840 470.421936,260.278809 469.338318,260.266876 
	C455.060852,260.109863 440.781219,260.096680 426.502869,260.178375 
	C425.458282,260.184357 424.419464,261.200317 423.377991,261.746735 
	C424.442657,262.451874 425.489105,263.732849 426.575043,263.767273 
	C432.878204,263.967072 439.190704,263.873566 446.500000,263.879669 
M366.456146,107.184761 
	C365.945099,108.034332 365.434021,108.883911 364.922974,109.733475 
	C366.072449,110.157593 367.219666,110.943550 368.371704,110.950676 
	C382.013275,111.034897 395.656219,111.061768 409.296753,110.914925 
	C410.745422,110.899330 412.181244,109.686966 413.623016,109.029800 
	C412.153168,108.408859 410.688721,107.263596 409.212677,107.248482 
	C395.239258,107.105461 381.263855,107.154747 366.456146,107.184761 
M417.491089,238.430206 
	C407.523499,238.432938 397.555237,238.385208 387.589233,238.511765 
	C386.523743,238.525284 385.471130,239.555359 384.412567,240.113861 
	C385.309570,240.789780 386.201538,242.046921 387.104340,242.054733 
	C401.556183,242.179947 416.009583,242.174530 430.461731,242.071869 
	C431.277679,242.066071 432.085785,240.962631 432.897552,240.370041 
	C432.080139,239.738800 431.288971,238.606232 430.440857,238.561859 
	C426.464325,238.353851 422.472137,238.445221 417.491089,238.430206 
M385.850250,85.931984 
	C384.844208,86.455956 383.838135,86.979927 381.922363,87.977692 
	C391.134460,90.417030 442.741699,89.430710 445.815247,85.928749 
	C425.432709,85.928749 406.107666,85.928749 385.850250,85.931984 
M338.513763,89.196228 
	C344.655457,89.195366 350.800171,89.314888 356.937927,89.158989 
	C362.800262,89.010094 368.782593,89.869705 374.544434,88.579391 
	C374.509338,87.746864 374.474213,86.914337 374.439117,86.081810 
	C358.169037,85.749382 341.897766,85.924675 325.567322,86.975075 
	C329.227997,90.303886 333.539062,88.687675 338.513763,89.196228 
z"/>
<path fill="#FB832F" opacity="1.000000" stroke="none" 
	d="
M160.780487,92.000031 
	C160.790665,128.153000 160.778305,163.806015 160.821457,199.458954 
	C160.840546,215.227997 170.456879,225.419266 186.081802,225.506348 
	C236.058563,225.784927 286.036713,225.811401 336.014313,225.944473 
	C338.845398,225.952011 341.691010,225.876694 344.504486,226.126007 
	C352.763947,226.857925 358.662872,233.128159 358.535278,240.858749 
	C358.398254,249.163513 352.730499,255.450073 344.359772,255.978897 
	C340.582764,256.217499 338.968231,257.545166 338.063721,261.339508 
	C335.172485,273.468506 324.322845,282.257233 312.700439,282.484833 
	C298.201080,282.768768 287.200409,275.443695 283.730743,262.171356 
	C282.393677,257.056671 280.248169,255.669525 275.260956,255.917358 
	C266.785034,256.338531 258.271454,256.142639 249.777496,255.991928 
	C246.281342,255.929886 244.526779,256.793945 243.676712,260.680511 
	C240.747711,274.072021 229.558548,282.598663 215.811157,282.541718 
	C202.410812,282.486206 191.581635,273.954681 188.755264,260.494293 
	C187.864731,256.253174 185.869537,255.613846 182.255417,255.819717 
	C164.204086,256.847992 149.812195,249.895004 139.064926,235.459061 
	C132.171921,226.200211 130.527023,215.398499 130.558456,204.222641 
	C130.644180,173.737793 130.832245,143.253174 130.884613,112.768303 
	C130.904938,100.943092 130.643494,89.117599 130.573181,77.291870 
	C130.559387,74.969330 130.637192,72.612801 131.011490,70.327431 
	C132.323410,62.317108 139.114563,56.664345 146.684433,57.115635 
	C154.401779,57.575726 160.618179,64.294289 160.755325,72.507637 
	C160.861023,78.836815 160.779068,85.169121 160.780487,92.000031 
M316.721619,242.496353 
	C309.160431,239.921478 302.452972,241.923492 299.321838,247.689865 
	C296.357727,253.148605 297.497406,260.364258 301.916748,264.118713 
	C307.949554,269.243927 316.438141,268.662140 321.009583,262.810150 
	C325.992065,256.432037 324.514069,248.235992 316.721619,242.496353 
M216.485336,267.730499 
	C217.939194,267.412750 219.468826,267.285889 220.833817,266.744202 
	C226.731155,264.403900 230.398499,258.080475 229.265594,252.431442 
	C227.917175,245.707794 222.521439,241.112442 215.972046,241.109848 
	C209.563446,241.107300 204.309464,245.674301 203.194748,252.216461 
	C201.865891,260.015472 206.450562,265.693878 216.485336,267.730499 
z"/>
<path fill="#FB812C" opacity="1.000000" stroke="none" 
	d="
M345.397278,169.002701 
	C345.595245,169.752930 345.793213,170.503143 345.739166,171.752380 
	C345.246368,172.451538 345.080719,172.701477 344.589874,173.052948 
	C341.630829,173.168808 337.204407,174.052246 336.815094,173.164780 
	C334.196075,167.194351 328.998260,168.477554 324.490601,168.075287 
	C321.690582,167.825409 319.563416,167.919647 318.685181,164.246613 
	C317.921844,161.054077 315.208801,161.229736 312.923584,163.346298 
	C312.143768,164.068527 311.552155,164.993896 310.633301,166.122864 
	C309.929199,165.049469 309.306641,164.442322 309.089325,163.714203 
	C307.566040,158.611267 303.344421,160.343384 299.923553,159.996674 
	C296.375061,159.637039 296.024750,162.422623 295.241150,164.726166 
	C293.924744,168.595840 292.429047,168.788528 288.830750,166.489639 
	C286.810150,165.198700 283.574768,163.701416 281.822754,164.459747 
	C273.904877,167.886902 266.177643,168.099014 258.152649,165.271561 
	C257.193329,164.933563 255.709427,165.149750 254.828873,165.692963 
	C251.834839,167.539978 249.301147,166.576904 246.379761,165.336899 
	C244.266449,164.439880 240.758224,163.624649 239.419785,164.699753 
	C235.182587,168.103317 230.340851,168.328247 225.467804,169.166992 
	C222.665176,169.649384 219.025482,170.043930 217.464081,171.905289 
	C214.744415,175.147415 212.611908,174.264435 209.996216,172.453522 
	C210.483627,171.423172 210.879257,170.689926 211.395325,169.870972 
	C211.688248,169.492477 211.623062,169.249649 211.179642,168.767197 
	C210.673477,167.704803 210.307907,166.932022 209.994385,165.792068 
	C211.030655,164.446182 212.443649,163.637939 212.914047,162.454926 
	C214.059235,159.574860 219.958389,158.474884 216.374741,153.412491 
	C217.445892,151.342148 218.421783,149.632828 219.535675,147.818985 
	C219.837601,147.543625 219.953186,147.344666 220.082550,146.834747 
	C220.664505,145.996826 221.184280,145.441742 222.069092,144.896057 
	C224.200378,144.110046 226.859894,143.798645 224.717133,140.544189 
	C225.232605,139.842697 225.667267,139.438324 226.484650,139.026337 
	C230.858566,139.083481 232.224396,136.830994 232.125397,133.046265 
	C232.236511,132.905045 232.591705,132.850128 233.005890,132.890518 
	C236.078949,132.810669 238.279785,132.193161 238.027603,128.576721 
	C238.379364,128.118759 238.669876,127.996567 239.204254,127.926582 
	C239.644699,127.721848 239.829117,127.526894 240.111435,127.122528 
	C240.272888,126.973228 240.707733,126.907379 240.975098,126.860535 
	C241.499115,126.570358 241.755768,126.327026 242.195496,125.809967 
	C243.567734,124.982681 244.756927,124.429131 246.144348,124.140839 
	C247.577499,124.445938 248.847839,124.312363 250.041046,124.556229 
	C254.702911,125.509041 256.620911,123.230690 256.972290,118.955704 
	C257.002350,118.981949 256.925690,118.959854 257.161377,118.871178 
	C257.592438,118.517616 257.787842,118.252731 258.077606,117.689842 
	C258.418915,116.602303 258.665833,115.812767 259.200317,114.791000 
	C258.783905,113.051071 258.209320,111.462372 257.333191,110.062393 
	C256.682373,109.022476 255.640335,108.227364 254.969452,107.528358 
	C257.534851,106.298058 259.265045,105.468315 262.097229,104.110062 
	C257.420410,101.790016 252.701263,100.465233 258.475800,96.225113 
	C258.880310,95.928093 259.033295,94.979836 258.953217,94.381248 
	C258.396118,90.217300 260.835419,88.450485 264.270538,87.319527 
	C268.288513,94.722816 275.606964,96.150932 282.673035,98.017929 
	C282.745819,98.773026 282.818634,99.528130 282.415619,100.757011 
	C281.363312,103.675308 280.786804,106.119812 280.333893,108.040329 
	C289.418945,112.527451 297.947113,116.644775 306.375946,120.956329 
	C309.149261,122.374962 311.641815,124.334656 314.307129,125.974831 
	C316.208679,127.145004 318.467560,127.891670 320.055145,129.375092 
	C322.031311,131.221497 323.171082,135.021118 325.228485,135.479492 
	C328.479065,136.203690 328.875580,138.095596 329.748291,140.348572 
	C330.397064,142.023392 330.968353,144.345657 332.277405,145.025528 
	C335.532837,146.716263 335.033264,152.670227 340.245117,151.818573 
	C340.245117,151.818573 340.197174,151.932739 340.130005,152.243439 
	C340.805756,154.041519 341.548706,155.528931 342.291626,157.016342 
	C342.498138,157.449783 342.704651,157.883209 342.665466,158.917786 
	C343.412231,162.680176 344.404755,165.841431 345.397278,169.002701 
M306.941711,143.464951 
	C302.347443,140.607376 297.850037,141.855301 293.508179,143.787964 
	C292.165314,142.845825 290.912903,141.213394 289.670959,141.221298 
	C282.902740,141.264343 276.106995,141.447433 269.392487,142.212204 
	C267.793121,142.394363 265.998077,144.763138 265.161255,146.535995 
	C264.455383,148.031372 265.015228,150.121002 265.002563,151.947510 
	C264.977936,155.499222 266.890747,157.486450 270.266602,156.917877 
	C278.406891,155.546814 286.674774,159.889664 294.734528,156.230118 
	C295.194824,156.021103 295.976257,156.654633 296.619263,156.689026 
	C299.263184,156.830444 301.966125,157.245956 304.537292,156.848495 
	C306.056824,156.613617 308.516541,155.099945 308.565002,154.067902 
	C308.720642,150.755630 307.950623,147.399857 306.941711,143.464951 
M254.924805,151.500366 
	C254.365768,149.701645 253.806717,147.902908 252.854721,144.839874 
	C249.818069,147.804352 247.483521,150.083435 245.148956,152.362503 
	C246.783798,153.847198 248.441254,156.518646 250.047211,156.488052 
	C251.705139,156.456451 253.313004,153.797287 254.924805,151.500366 
M334.963287,157.264252 
	C335.085999,157.995377 335.208679,158.726517 335.331390,159.457657 
	C335.743744,159.381119 336.156067,159.304596 336.568420,159.228058 
	C336.246399,158.539871 335.924377,157.851685 334.963287,157.264252 
M275.289825,102.446449 
	C275.011078,102.712143 274.732361,102.977844 274.453644,103.243553 
	C274.563782,103.358940 274.763611,103.580696 274.771088,103.574387 
	C275.065063,103.326393 275.341553,103.057655 275.289825,102.446449 
z"/>
<path fill="#FD842E" opacity="1.000000" stroke="none" 
	d="
M222.000000,187.114304 
	C265.287567,187.120453 308.075134,187.113129 350.862701,187.150162 
	C357.185913,187.155640 362.077881,191.110413 363.482117,197.085754 
	C364.843475,202.878723 361.896667,209.083435 356.318909,211.536606 
	C354.562714,212.308990 352.469696,212.625168 350.530426,212.626602 
	C296.255127,212.666748 241.979752,212.656708 187.704437,212.605591 
	C179.244247,212.597626 173.949203,207.705353 173.922638,200.176376 
	C173.893402,191.896851 179.101807,187.084930 188.036102,187.099197 
	C199.190720,187.116989 210.345367,187.110931 222.000000,187.114304 
z"/>
<path fill="#FA8432" opacity="1.000000" stroke="none" 
	d="
M661.630615,196.000153 
	C661.629272,203.492813 661.416443,210.494431 661.710632,217.474655 
	C661.873718,221.344193 660.473572,222.443375 656.828430,222.161697 
	C653.207092,221.881866 649.547180,222.100418 645.663696,222.100418 
	C645.269348,220.238617 644.943115,218.698303 644.544739,216.817413 
	C641.076660,218.651825 637.951355,220.908310 634.461304,222.046494 
	C619.345825,226.975967 605.386108,220.633911 597.461487,205.582016 
	C590.531921,192.420227 593.731934,173.272339 604.561462,163.097900 
	C614.720154,153.553772 629.329895,152.473709 640.798523,160.417313 
	C641.879517,161.166016 642.967285,161.904953 644.713867,163.102203 
	C644.858093,161.222961 645.047485,159.864716 645.052368,158.505814 
	C645.079224,151.013779 645.162720,143.519501 645.009216,136.030441 
	C644.946533,132.973465 645.677124,131.597687 649.121399,131.501678 
	C661.593323,131.154037 661.592773,131.028046 661.601746,143.554489 
	C661.614075,160.869705 661.621399,178.184937 661.630615,196.000153 
M645.792786,189.487488 
	C645.716614,188.494537 645.707703,187.491043 645.554016,186.510239 
	C644.010010,176.657104 636.808716,170.022797 627.845825,170.167236 
	C618.763733,170.313629 611.350769,177.635178 610.334290,187.462677 
	C609.312805,197.339828 615.304016,206.086136 624.465088,208.091446 
	C635.570312,210.522308 643.962402,203.531082 645.792786,189.487488 
z"/>
<path fill="#3280CB" opacity="1.000000" stroke="none" 
	d="
M678.579956,197.368439 
	C672.641724,179.690964 673.228149,163.150330 685.182800,148.390457 
	C703.369995,125.935654 742.770020,126.504684 760.160889,149.784912 
	C756.500427,153.212463 752.787659,156.688950 749.252014,159.999649 
	C743.915955,156.697906 739.144775,153.033508 733.814758,150.585922 
	C719.771301,144.136978 703.136414,149.724686 695.667847,162.897476 
	C688.378479,175.754227 691.926819,193.637619 703.438477,202.061066 
	C714.809326,210.381516 731.190735,209.775345 742.455261,200.603012 
	C744.378418,199.037048 746.259094,197.418854 747.809875,196.118011 
	C751.940125,199.875519 755.808044,203.394409 759.627686,206.869339 
	C739.710876,232.109009 692.770386,230.555756 678.579956,197.368439 
z"/>
<path fill="#3180CB" opacity="1.000000" stroke="none" 
	d="
M790.181274,157.130966 
	C801.599426,152.981750 811.404968,155.641251 820.772766,163.225861 
	C821.103027,160.916565 821.343628,159.234634 821.618530,157.312561 
	C826.845581,157.312561 831.902832,157.312561 837.261841,157.312561 
	C837.261841,178.826996 837.261841,200.049026 837.261841,221.653854 
	C832.076965,221.653854 827.040833,221.653854 821.691406,221.653854 
	C821.388000,220.104904 821.084656,218.556015 820.619019,216.178436 
	C810.842529,224.108612 800.245056,225.897049 789.148987,221.100479 
	C781.564453,217.821808 776.140015,211.833649 772.932983,204.207169 
	C765.126404,185.642761 772.760925,164.624786 790.181274,157.130966 
M821.894409,187.762466 
	C821.819702,187.101624 821.790344,186.431961 821.663452,185.781281 
	C819.754639,175.988358 812.280701,169.641510 803.267456,170.144562 
	C794.768982,170.618881 787.700134,177.500504 786.846436,186.130646 
	C785.696472,197.756042 790.579895,205.745560 800.261719,208.078949 
	C811.957031,210.897614 821.539734,202.288437 821.894409,187.762466 
z"/>
<path fill="#F98534" opacity="1.000000" stroke="none" 
	d="
M526.831360,215.186676 
	C514.599670,202.922546 511.875549,187.597763 519.195374,173.447693 
	C525.890442,160.505341 541.117981,152.975540 555.188843,155.649292 
	C570.315979,158.523788 580.910950,169.216354 583.437256,184.157837 
	C585.700195,197.542297 579.205872,211.879562 567.920044,218.414642 
	C554.013306,226.467361 539.341187,225.395370 526.831360,215.186676 
M552.914490,207.947479 
	C564.215271,206.382645 569.757324,192.962585 565.916382,182.189774 
	C562.549438,172.746719 551.791565,168.218170 542.164978,172.339874 
	C534.295898,175.709106 530.216187,185.025909 532.409363,194.618530 
	C534.557312,204.013245 541.181396,208.552429 552.914490,207.947479 
z"/>
<path fill="#F98534" opacity="1.000000" stroke="none" 
	d="
M487.564789,219.608459 
	C473.595520,226.462799 458.308685,224.462860 447.785828,214.652695 
	C437.454834,205.021378 433.970245,189.655136 439.267303,177.087540 
	C445.188965,163.037918 457.810486,154.688568 472.433563,155.147430 
	C487.290344,155.613632 501.330658,166.797333 504.531433,180.714706 
	C508.217377,196.741760 501.777924,211.696533 487.564789,219.608459 
M488.840729,187.825729 
	C488.614563,186.685699 488.433807,185.534439 488.155121,184.407394 
	C485.894318,175.263733 478.849457,170.211395 469.377777,170.919556 
	C460.703766,171.568085 454.587189,178.117554 453.510834,187.909515 
	C452.518188,196.940079 457.533142,205.035385 465.587769,207.404572 
	C478.334259,211.153824 488.425049,203.038223 488.840729,187.825729 
z"/>
<path fill="#FD832E" opacity="1.000000" stroke="none" 
	d="
M383.422058,212.897980 
	C383.423676,188.109024 383.522614,163.803833 383.330963,139.500946 
	C383.296661,135.152603 384.452240,133.773315 388.921234,133.883835 
	C401.374634,134.191849 413.840637,133.990860 426.725769,133.990860 
	C426.725769,139.404114 426.725769,144.431976 426.725769,150.061676 
	C418.268646,150.061676 409.866272,150.061676 400.668182,150.061676 
	C400.668182,155.042526 400.475769,159.464050 400.830322,163.841293 
	C400.901306,164.717880 403.029449,166.052933 404.254181,166.104507 
	C410.070496,166.349396 415.902496,166.207565 421.728699,166.239594 
	C423.347260,166.248489 424.965149,166.381287 426.862793,166.470337 
	C426.862793,171.767090 426.862793,176.666946 426.862793,182.240860 
	C419.717133,182.240860 412.776611,182.462296 405.859070,182.158997 
	C401.613312,181.972839 400.445251,183.553528 400.542725,187.612854 
	C400.782349,197.595154 400.490784,207.589706 400.693756,217.573639 
	C400.764069,221.031631 399.767792,222.566345 396.208221,222.120636 
	C394.897186,221.956482 393.547729,222.116943 392.216370,222.094498 
	C382.369263,221.928528 383.433716,223.480148 383.422058,212.897980 
z"/>
<path fill="#317FCC" opacity="1.000000" stroke="none" 
	d="
M911.764404,171.771240 
	C911.393860,187.057159 911.325256,202.009857 911.258484,216.962570 
	C911.251953,218.422668 911.257507,219.882843 911.257507,221.690521 
	C905.793396,221.690521 900.758789,221.690521 894.986511,221.690521 
	C894.986511,217.062927 894.988281,212.630829 894.986206,208.198746 
	C894.981323,197.885071 894.760132,187.565002 895.066711,177.260620 
	C895.203308,172.668411 894.172058,170.241165 889.128662,171.074387 
	C888.504944,171.177399 887.827637,170.955795 886.735474,170.836670 
	C886.735474,166.428375 886.735474,162.072800 886.735474,157.310593 
	C889.257996,157.131836 891.820557,156.950241 894.823608,156.737427 
	C894.823608,148.951248 894.823608,141.367523 894.823608,133.341156 
	C900.295837,133.341156 905.324646,133.341156 911.365845,133.341156 
	C911.365845,139.249695 911.793762,145.206451 911.235352,151.069275 
	C910.757507,156.086853 912.440186,157.738525 917.180359,157.057816 
	C918.130371,156.921387 919.137695,157.183701 920.497681,157.292496 
	C920.497681,161.764908 920.497681,166.136749 920.497681,170.794846 
	C917.601929,171.015762 914.834412,171.226883 911.764404,171.771240 
z"/>
<path fill="#FD822B" opacity="1.000000" stroke="none" 
	d="
M209.904434,172.750626 
	C212.611908,174.264435 214.744415,175.147415 217.464081,171.905289 
	C219.025482,170.043930 222.665176,169.649384 225.467804,169.166992 
	C230.340851,168.328247 235.182587,168.103317 239.419785,164.699753 
	C240.758224,163.624649 244.266449,164.439880 246.379761,165.336899 
	C249.301147,166.576904 251.834839,167.539978 254.828873,165.692963 
	C255.709427,165.149750 257.193329,164.933563 258.152649,165.271561 
	C266.177643,168.099014 273.904877,167.886902 281.822754,164.459747 
	C283.574768,163.701416 286.810150,165.198700 288.830750,166.489639 
	C292.429047,168.788528 293.924744,168.595840 295.241150,164.726166 
	C296.024750,162.422623 296.375061,159.637039 299.923553,159.996674 
	C303.344421,160.343384 307.566040,158.611267 309.089325,163.714203 
	C309.306641,164.442322 309.929199,165.049469 310.633301,166.122864 
	C311.552155,164.993896 312.143768,164.068527 312.923584,163.346298 
	C315.208801,161.229736 317.921844,161.054077 318.685181,164.246613 
	C319.563416,167.919647 321.690582,167.825409 324.490601,168.075287 
	C328.998260,168.477554 334.196075,167.194351 336.815094,173.164780 
	C337.204407,174.052246 341.630829,173.168808 344.616638,173.328522 
	C345.508026,174.038956 345.972321,174.525513 346.436646,175.012054 
	C346.577332,175.444107 346.718048,175.876160 346.463745,176.654449 
	C345.376892,177.602432 344.685028,178.204178 343.993164,178.805908 
	C341.950226,178.870941 339.907288,178.935989 337.326660,178.541687 
	C333.403564,176.728317 330.025360,175.468994 326.995331,178.821701 
	C326.550293,178.876633 326.105225,178.931580 325.218079,178.524185 
	C317.400818,177.871933 310.025848,177.671143 302.649567,177.547195 
	C302.438538,177.543655 302.213776,178.356598 301.995422,178.788849 
	C299.622620,178.851227 297.249817,178.913605 294.324005,178.508667 
	C292.735260,177.696228 291.700226,177.052185 290.663727,177.049805 
	C265.953766,176.993088 241.243576,176.980499 216.533920,177.081116 
	C215.351944,177.085922 214.174484,178.201904 212.994919,178.800415 
	C209.963348,178.858505 206.931793,178.916565 203.384369,178.511688 
	C201.341537,177.367371 199.852310,176.216309 198.280762,176.090103 
	C192.928757,175.660278 191.937164,174.484818 193.361557,169.406281 
	C194.585175,165.043579 196.818085,164.499496 202.437714,167.526886 
	C202.263184,168.846558 202.175995,169.812805 202.061569,171.125153 
	C202.698105,171.967560 203.361877,172.463852 204.447968,173.012329 
	C206.548325,172.959869 208.226379,172.855240 209.904434,172.750626 
z"/>
<path fill="#3482CD" opacity="1.000000" stroke="none" 
	d="
M866.574341,194.016083 
	C866.599365,203.466766 866.599365,212.420242 866.599365,221.705475 
	C861.081299,221.705475 856.025146,221.705475 850.555664,221.705475 
	C850.555664,200.341980 850.555664,179.121536 850.555664,157.441467 
	C854.793884,157.441467 859.178101,157.441467 863.847961,157.441467 
	C864.116333,158.636276 864.432007,160.041595 864.833557,161.829208 
	C865.487610,161.452423 866.066895,161.267593 866.437744,160.882172 
	C870.615173,156.540375 875.418030,154.052353 881.625061,155.662262 
	C884.101379,156.304535 885.386292,157.459671 884.112061,160.314392 
	C882.627136,163.641266 881.480591,167.119171 880.208191,170.475998 
	C871.774597,169.570023 868.801208,171.651825 867.415955,180.097305 
	C866.693848,184.500107 866.811218,189.040573 866.574341,194.016083 
z"/>
<path fill="#F98533" opacity="1.000000" stroke="none" 
	d="
M202.525024,167.173447 
	C196.818085,164.499496 194.585175,165.043579 193.361557,169.406281 
	C191.937164,174.484818 192.928757,175.660278 198.280762,176.090103 
	C199.852310,176.216309 201.341537,177.367371 202.938400,178.420685 
	C199.046967,178.792633 195.085632,178.792633 190.347458,178.792633 
	C191.840729,160.379807 197.927292,144.343079 209.956604,130.648849 
	C222.016098,116.920296 237.221115,108.574730 254.968399,104.956863 
	C253.181076,94.304947 257.467133,86.547424 265.552551,85.134483 
	C274.642212,83.546043 281.134735,88.099724 282.764435,97.644226 
	C275.606964,96.150932 268.288513,94.722816 264.270538,87.319527 
	C260.835419,88.450485 258.396118,90.217300 258.953217,94.381248 
	C259.033295,94.979836 258.880310,95.928093 258.475800,96.225113 
	C252.701263,100.465233 257.420410,101.790016 262.097229,104.110062 
	C259.265045,105.468315 257.534851,106.298058 254.969452,107.528358 
	C255.640335,108.227364 256.682373,109.022476 257.333191,110.062393 
	C258.209320,111.462372 258.783905,113.051071 258.940125,114.532516 
	C256.269623,110.228699 252.767853,111.627518 249.751923,112.762283 
	C233.841827,118.748619 221.106857,128.793533 212.112473,143.294220 
	C209.934174,146.806061 207.981415,150.591232 206.774658,154.512222 
	C206.226288,156.293915 207.090042,159.697891 208.477493,160.626526 
	C210.938721,162.273865 213.064651,160.411514 214.180405,157.713013 
	C214.746262,156.344513 215.571518,155.083252 216.279480,153.773514 
	C219.958389,158.474884 214.059235,159.574860 212.914047,162.454926 
	C212.443649,163.637939 211.030655,164.446182 209.659821,165.650391 
	C207.023788,166.308411 204.774414,166.740921 202.525024,167.173447 
z"/>
<path fill="#F98533" opacity="1.000000" stroke="none" 
	d="
M340.230621,151.444733 
	C335.033264,152.670227 335.532837,146.716263 332.277405,145.025528 
	C330.968353,144.345657 330.397064,142.023392 329.748291,140.348572 
	C328.875580,138.095596 328.479065,136.203690 325.228485,135.479492 
	C323.171082,135.021118 322.031311,131.221497 320.055145,129.375092 
	C318.467560,127.891670 316.208679,127.145004 314.307129,125.974831 
	C311.641815,124.334656 309.149261,122.374962 306.375946,120.956329 
	C297.947113,116.644775 289.418945,112.527451 280.333893,108.040329 
	C280.786804,106.119812 281.363312,103.675308 282.271851,101.113892 
	C281.605286,105.163795 284.640442,105.424362 287.427216,106.134811 
	C310.396729,111.990540 327.007935,125.922752 338.358459,146.456955 
	C339.154541,147.897171 339.604950,149.528458 340.230621,151.444733 
z"/>
<path fill="#F79245" opacity="1.000000" stroke="none" 
	d="
M455.000000,111.065987 
	C445.033264,111.064735 435.564880,111.151031 426.101624,110.969177 
	C424.668610,110.941643 423.259521,109.666855 421.839386,108.968994 
	C423.159058,108.350349 424.475250,107.201767 425.798950,107.192986 
	C444.067322,107.071785 462.336945,107.067520 480.605194,107.192108 
	C481.849976,107.200600 483.086212,108.464272 484.326385,109.144203 
	C483.021759,109.784599 481.727905,110.952492 480.410706,110.979439 
	C472.110016,111.149353 463.804169,111.065903 455.000000,111.065987 
z"/>
<path fill="#F59852" opacity="1.000000" stroke="none" 
	d="
M515.000000,260.112762 
	C523.480774,260.110626 531.462769,260.036896 539.440918,260.181061 
	C540.671448,260.203278 541.883911,261.225861 543.104736,261.785828 
	C541.844360,262.489105 540.588623,263.795288 539.322998,263.804932 
	C521.034729,263.944214 502.744995,263.944366 484.456299,263.847809 
	C483.038208,263.840302 481.625244,262.861084 480.209900,262.333496 
	C480.333740,261.593201 480.457550,260.852875 480.581390,260.112579 
	C491.887604,260.112579 503.193787,260.112579 515.000000,260.112762 
z"/>
<path fill="#4B8BD7" opacity="1.000000" stroke="none" 
	d="
M503.056519,241.705139 
	C483.582611,241.993393 464.460785,242.076843 445.339294,242.027740 
	C444.122314,242.024628 442.907990,240.992294 441.692413,240.438782 
	C442.954651,239.780029 444.213074,238.556046 445.479645,238.547531 
	C463.607300,238.425797 481.736145,238.454956 499.864594,238.490372 
	C501.766449,238.494080 504.233551,238.099335 503.056519,241.705139 
z"/>
<path fill="#5E9CDD" opacity="1.000000" stroke="none" 
	d="
M446.000000,263.879456 
	C439.190704,263.873566 432.878204,263.967072 426.575043,263.767273 
	C425.489105,263.732849 424.442657,262.451874 423.377991,261.746735 
	C424.419464,261.200317 425.458282,260.184357 426.502869,260.178375 
	C440.781219,260.096680 455.060852,260.109863 469.338318,260.266876 
	C470.421936,260.278809 471.491638,261.554840 472.567810,262.243256 
	C471.516144,262.791168 470.472473,263.795288 469.411530,263.813873 
	C461.776306,263.947937 454.137604,263.882111 446.000000,263.879456 
z"/>
<path fill="#5593D8" opacity="1.000000" stroke="none" 
	d="
M366.872589,107.166702 
	C381.263855,107.154747 395.239258,107.105461 409.212677,107.248482 
	C410.688721,107.263596 412.153168,108.408859 413.623016,109.029800 
	C412.181244,109.686966 410.745422,110.899330 409.296753,110.914925 
	C395.656219,111.061768 382.013275,111.034897 368.371704,110.950676 
	C367.219666,110.943550 366.072449,110.157593 364.922974,109.733475 
	C365.434021,108.883911 365.945099,108.034332 366.872589,107.166702 
z"/>
<path fill="#F78B3C" opacity="1.000000" stroke="none" 
	d="
M417.988312,238.429932 
	C422.472137,238.445221 426.464325,238.353851 430.440857,238.561859 
	C431.288971,238.606232 432.080139,239.738800 432.897552,240.370041 
	C432.085785,240.962631 431.277679,242.066071 430.461731,242.071869 
	C416.009583,242.174530 401.556183,242.179947 387.104340,242.054733 
	C386.201538,242.046921 385.309570,240.789780 384.412567,240.113861 
	C385.471130,239.555359 386.523743,238.525284 387.589233,238.511765 
	C397.555237,238.385208 407.523499,238.432938 417.988312,238.429932 
z"/>
<path fill="#468DD8" opacity="1.000000" stroke="none" 
	d="
M386.316406,85.930367 
	C406.107666,85.928749 425.432709,85.928749 445.815247,85.928749 
	C442.741699,89.430710 391.134460,90.417030 381.922363,87.977692 
	C383.838135,86.979927 384.844208,86.455956 386.316406,85.930367 
z"/>
<path fill="#F98533" opacity="1.000000" stroke="none" 
	d="
M213.454727,178.900696 
	C214.174484,178.201904 215.351944,177.085922 216.533920,177.081116 
	C241.243576,176.980499 265.953766,176.993088 290.663727,177.049805 
	C291.700226,177.052185 292.735260,177.696228 293.887726,178.416229 
	C273.444550,178.872742 252.884644,178.962463 232.324677,179.031006 
	C226.188065,179.051468 220.051254,179.012650 213.454727,178.900696 
z"/>
<path fill="#F58C3D" opacity="1.000000" stroke="none" 
	d="
M338.017334,89.197144 
	C333.539062,88.687675 329.227997,90.303886 325.567322,86.975075 
	C341.897766,85.924675 358.169037,85.749382 374.439117,86.081810 
	C374.474213,86.914337 374.509338,87.746864 374.544434,88.579391 
	C368.782593,89.869705 362.800262,89.010094 356.937927,89.158989 
	C350.800171,89.314888 344.655457,89.195366 338.017334,89.197144 
z"/>
<path fill="#F98533" opacity="1.000000" stroke="none" 
	d="
M302.455017,178.889633 
	C302.213776,178.356598 302.438538,177.543655 302.649567,177.547195 
	C310.025848,177.671143 317.400818,177.871933 324.889923,178.439102 
	C317.640778,178.874374 310.277679,178.932404 302.455017,178.889633 
z"/>
<path fill="#F98533" opacity="1.000000" stroke="none" 
	d="
M327.440887,178.922272 
	C330.025360,175.468994 333.403564,176.728317 336.896606,178.451324 
	C333.965027,178.887802 330.925720,178.955322 327.440887,178.922272 
z"/>
<path fill="#F98533" opacity="1.000000" stroke="none" 
	d="
M345.511963,168.628967 
	C344.404755,165.841431 343.412231,162.680176 342.648132,159.283112 
	C343.793213,162.116623 344.709961,165.185928 345.511963,168.628967 
z"/>
<path fill="#F98533" opacity="1.000000" stroke="none" 
	d="
M342.381348,156.701752 
	C341.548706,155.528931 340.805756,154.041519 340.119873,152.182343 
	C340.941650,153.336105 341.706360,154.861649 342.381348,156.701752 
z"/>
<path fill="#F98533" opacity="1.000000" stroke="none" 
	d="
M346.540710,174.708313 
	C345.972321,174.525513 345.508026,174.038956 345.016968,173.276810 
	C345.080719,172.701477 345.246368,172.451538 345.686707,172.142487 
	C346.139099,172.823914 346.391937,173.614243 346.540710,174.708313 
z"/>
<path fill="#F98533" opacity="1.000000" stroke="none" 
	d="
M344.338196,178.899384 
	C344.685028,178.204178 345.376892,177.602432 346.382568,176.991394 
	C346.025330,177.652344 345.354279,178.322601 344.338196,178.899384 
z"/>
<path fill="#F8F5EF" opacity="1.000000" stroke="none" 
	d="
M317.064880,242.667328 
	C324.514069,248.235992 325.992065,256.432037 321.009583,262.810150 
	C316.438141,268.662140 307.949554,269.243927 301.916748,264.118713 
	C297.497406,260.364258 296.357727,253.148605 299.321838,247.689865 
	C302.452972,241.923492 309.160431,239.921478 317.064880,242.667328 
z"/>
<path fill="#F9F5EF" opacity="1.000000" stroke="none" 
	d="
M216.093781,267.719116 
	C206.450562,265.693878 201.865891,260.015472 203.194748,252.216461 
	C204.309464,245.674301 209.563446,241.107300 215.972046,241.109848 
	C222.521439,241.112442 227.917175,245.707794 229.265594,252.431442 
	C230.398499,258.080475 226.731155,264.403900 220.833817,266.744202 
	C219.468826,267.285889 217.939194,267.412750 216.093781,267.719116 
z"/>
<path fill="#FD822B" opacity="1.000000" stroke="none" 
	d="
M307.239685,143.762909 
	C307.950623,147.399857 308.720642,150.755630 308.565002,154.067902 
	C308.516541,155.099945 306.056824,156.613617 304.537292,156.848495 
	C301.966125,157.245956 299.263184,156.830444 296.619263,156.689026 
	C295.976257,156.654633 295.194824,156.021103 294.734528,156.230118 
	C286.674774,159.889664 278.406891,155.546814 270.266602,156.917877 
	C266.890747,157.486450 264.977936,155.499222 265.002563,151.947510 
	C265.015228,150.121002 264.455383,148.031372 265.161255,146.535995 
	C265.998077,144.763138 267.793121,142.394363 269.392487,142.212204 
	C276.106995,141.447433 282.902740,141.264343 289.670959,141.221298 
	C290.912903,141.213394 292.165314,142.845825 293.508179,143.787964 
	C297.850037,141.855301 302.347443,140.607376 307.239685,143.762909 
z"/>
<path fill="#F9F2E9" opacity="1.000000" stroke="none" 
	d="
M216.374741,153.412491 
	C215.571518,155.083252 214.746262,156.344513 214.180405,157.713013 
	C213.064651,160.411514 210.938721,162.273865 208.477493,160.626526 
	C207.090042,159.697891 206.226288,156.293915 206.774658,154.512222 
	C207.981415,150.591232 209.934174,146.806061 212.112473,143.294220 
	C221.106857,128.793533 233.841827,118.748619 249.751923,112.762283 
	C252.767853,111.627518 256.269623,110.228699 258.652527,114.764748 
	C258.665833,115.812767 258.418915,116.602303 257.830383,117.762558 
	C257.301086,118.408806 257.113373,118.684334 256.925690,118.959854 
	C256.925690,118.959854 257.002350,118.981949 256.623322,119.044556 
	C252.811569,120.696625 249.378845,122.286095 245.946121,123.875580 
	C244.756927,124.429131 243.567734,124.982681 241.924011,125.844604 
	C241.215561,126.404449 240.961655,126.655922 240.707733,126.907387 
	C240.707733,126.907379 240.272888,126.973228 239.889771,127.134476 
	C239.210022,127.436226 239.045044,127.669807 239.011734,127.996460 
	C238.669876,127.996567 238.379364,128.118759 237.695633,128.643234 
	C235.697937,130.232346 234.144821,131.541245 232.591705,132.850128 
	C232.591705,132.850128 232.236511,132.905045 231.811127,133.120483 
	C229.624481,135.235275 227.863220,137.134613 226.101929,139.033966 
	C225.667267,139.438324 225.232605,139.842697 224.450455,140.712448 
	C223.303345,142.414124 222.503693,143.650391 221.704041,144.886658 
	C221.184280,145.441742 220.664505,145.996826 219.888458,146.885101 
	C219.369110,147.391891 219.290939,147.626953 219.397675,147.923508 
	C218.421783,149.632828 217.445892,151.342148 216.374741,153.412491 
z"/>
<path fill="#FD822B" opacity="1.000000" stroke="none" 
	d="
M254.933792,151.893997 
	C253.313004,153.797287 251.705139,156.456451 250.047211,156.488052 
	C248.441254,156.518646 246.783798,153.847198 245.148956,152.362518 
	C247.483521,150.083435 249.818069,147.804352 252.854721,144.839874 
	C253.806717,147.902908 254.365768,149.701645 254.933792,151.893997 
z"/>
<path fill="#F8EEE0" opacity="1.000000" stroke="none" 
	d="
M202.437714,167.526886 
	C204.774414,166.740921 207.023788,166.308411 209.607758,166.017548 
	C210.307907,166.932022 210.673477,167.704803 211.107193,168.989014 
	C211.175323,169.500412 211.274887,169.956680 211.274887,169.956680 
	C210.879257,170.689926 210.483627,171.423172 209.996216,172.453522 
	C208.226379,172.855240 206.548325,172.959869 204.331345,172.740295 
	C203.224548,171.870392 202.656662,171.324722 202.088791,170.779037 
	C202.175995,169.812805 202.263184,168.846558 202.437714,167.526886 
z"/>
<path fill="#F98533" opacity="1.000000" stroke="none" 
	d="
M246.144348,124.140839 
	C249.378845,122.286095 252.811569,120.696625 256.593262,119.018311 
	C256.620911,123.230690 254.702911,125.509041 250.041046,124.556229 
	C248.847839,124.312363 247.577499,124.445938 246.144348,124.140839 
z"/>
<path fill="#F98533" opacity="1.000000" stroke="none" 
	d="
M226.484665,139.026337 
	C227.863220,137.134613 229.624481,135.235275 231.700012,133.261719 
	C232.224396,136.830994 230.858566,139.083481 226.484665,139.026337 
z"/>
<path fill="#F98533" opacity="1.000000" stroke="none" 
	d="
M233.005890,132.890518 
	C234.144821,131.541245 235.697937,130.232346 237.583023,128.856934 
	C238.279785,132.193161 236.078949,132.810669 233.005890,132.890518 
z"/>
<path fill="#F98533" opacity="1.000000" stroke="none" 
	d="
M222.069092,144.896057 
	C222.503693,143.650391 223.303345,142.414124 224.369659,141.009583 
	C226.859894,143.798645 224.200378,144.110046 222.069092,144.896057 
z"/>
<path fill="#F98533" opacity="1.000000" stroke="none" 
	d="
M335.282837,157.213867 
	C335.924377,157.851685 336.246399,158.539871 336.568420,159.228058 
	C336.156067,159.304596 335.743744,159.381119 335.331390,159.457642 
	C335.208679,158.726517 335.085999,157.995377 335.282837,157.213867 
z"/>
<path fill="#F98533" opacity="1.000000" stroke="none" 
	d="
M275.455078,102.619034 
	C275.341553,103.057655 275.065063,103.326393 274.771088,103.574387 
	C274.763611,103.580696 274.563782,103.358940 274.453644,103.243546 
	C274.732361,102.977844 275.011078,102.712143 275.455078,102.619034 
z"/>
<path fill="#F98533" opacity="1.000000" stroke="none" 
	d="
M257.161377,118.871178 
	C257.113373,118.684334 257.301086,118.408806 257.735992,118.060562 
	C257.787842,118.252731 257.592438,118.517616 257.161377,118.871178 
z"/>
<path fill="#F98533" opacity="1.000000" stroke="none" 
	d="
M240.975098,126.860542 
	C240.961655,126.655922 241.215561,126.404449 241.740952,126.118332 
	C241.755768,126.327026 241.499115,126.570358 240.975098,126.860542 
z"/>
<path fill="#F98533" opacity="1.000000" stroke="none" 
	d="
M239.204254,127.926582 
	C239.045044,127.669807 239.210022,127.436226 239.728333,127.283783 
	C239.829117,127.526894 239.644699,127.721848 239.204254,127.926582 
z"/>
<path fill="#F98533" opacity="1.000000" stroke="none" 
	d="
M219.535675,147.818985 
	C219.290939,147.626953 219.369110,147.391891 219.826294,147.167969 
	C219.953186,147.344666 219.837601,147.543625 219.535675,147.818985 
z"/>
<path fill="#F98533" opacity="1.000000" stroke="none" 
	d="
M211.395325,169.870972 
	C211.274887,169.956680 211.175323,169.500412 211.247772,169.278595 
	C211.623062,169.249649 211.688248,169.492477 211.395325,169.870972 
z"/>
<path fill="#F8F5F2" opacity="1.000000" stroke="none" 
	d="
M645.789734,189.908264 
	C643.962402,203.531082 635.570312,210.522308 624.465088,208.091446 
	C615.304016,206.086136 609.312805,197.339828 610.334290,187.462677 
	C611.350769,177.635178 618.763733,170.313629 627.845825,170.167236 
	C636.808716,170.022797 644.010010,176.657104 645.554016,186.510239 
	C645.707703,187.491043 645.716614,188.494537 645.789734,189.908264 
z"/>
<path fill="#F2F6F7" opacity="1.000000" stroke="none" 
	d="
M821.906677,188.192200 
	C821.539734,202.288437 811.957031,210.897614 800.261719,208.078949 
	C790.579895,205.745560 785.696472,197.756042 786.846436,186.130646 
	C787.700134,177.500504 794.768982,170.618881 803.267456,170.144562 
	C812.280701,169.641510 819.754639,175.988358 821.663452,185.781281 
	C821.790344,186.431961 821.819702,187.101624 821.906677,188.192200 
z"/>
<path fill="#F8F5F2" opacity="1.000000" stroke="none" 
	d="
M552.488464,208.016739 
	C541.181396,208.552429 534.557312,204.013245 532.409363,194.618530 
	C530.216187,185.025909 534.295898,175.709106 542.164978,172.339874 
	C551.791565,168.218170 562.549438,172.746719 565.916382,182.189774 
	C569.757324,192.962585 564.215271,206.382645 552.488464,208.016739 
z"/>
<path fill="#F8F5F2" opacity="1.000000" stroke="none" 
	d="
M488.863098,188.246475 
	C488.425049,203.038223 478.334259,211.153824 465.587769,207.404572 
	C457.533142,205.035385 452.518188,196.940079 453.510834,187.909515 
	C454.587189,178.117554 460.703766,171.568085 469.377777,170.919556 
	C478.849457,170.211395 485.894318,175.263733 488.155121,184.407394 
	C488.433807,185.534439 488.614563,186.685699 488.863098,188.246475 
z"/>
<path fill="#F98533" opacity="1.000000" stroke="none" 
	d="
M202.061569,171.125153 
	C202.656662,171.324722 203.224548,171.870392 203.909027,172.688110 
	C203.361877,172.463852 202.698105,171.967560 202.061569,171.125153 
z"/>
</svg>